<svg id="Calque_1" data-name="Calque 1" xmlns="http://www.w3.org/2000/svg" xmlns:xlink="http://www.w3.org/1999/xlink" width="382.56" height="104.28" viewBox="0 0 382.56 104.28"><defs><linearGradient id="Dégradé_sans_nom" x1="302.17" y1="77.54" x2="363.3" y2="77.54" gradientTransform="matrix(1, 0, 0, -1, 0, 129.89)" gradientUnits="userSpaceOnUse"><stop offset="0" stop-color="#4f87c6"/><stop offset="0.28" stop-color="#5e93a6"/><stop offset="0.88" stop-color="#84b055"/><stop offset="1" stop-color="#8cb645"/></linearGradient></defs><title>concertae-conseil-certification-audit-expertise</title><path d="M59.35,112.61a2.08,2.08,0,0,0,1.35-.47,1.65,1.65,0,0,0,.64-1.17h1.37a2.63,2.63,0,0,1-.5,1.38,3.3,3.3,0,0,1-1.23,1,3.55,3.55,0,0,1-1.63.39,3.48,3.48,0,0,1-2.75-1.15,4.59,4.59,0,0,1-1-3.15v-.24A5.09,5.09,0,0,1,56,107a3.45,3.45,0,0,1,1.3-1.49,3.69,3.69,0,0,1,2-.53,3.39,3.39,0,0,1,2.36.85,3,3,0,0,1,1,2.21H61.34a2,2,0,0,0-.62-1.35,1.93,1.93,0,0,0-1.38-.53,2,2,0,0,0-1.71.79A3.72,3.72,0,0,0,57,109.3v.27a3.65,3.65,0,0,0,.6,2.25A2,2,0,0,0,59.35,112.61Z" transform="translate(-14.17 -12.58)" style="fill:#9c9d9e"/><path d="M64.91,109.33a5,5,0,0,1,.49-2.23,3.64,3.64,0,0,1,1.36-1.53,3.7,3.7,0,0,1,2-.54,3.57,3.57,0,0,1,2.79,1.2,4.6,4.6,0,0,1,1.07,3.18v.1a5,5,0,0,1-.47,2.21,3.59,3.59,0,0,1-1.35,1.53,3.75,3.75,0,0,1-2,.55,3.56,3.56,0,0,1-2.8-1.2,4.58,4.58,0,0,1-1.07-3.16v-.1Zm1.45.17a3.61,3.61,0,0,0,.65,2.26,2.21,2.21,0,0,0,3.5,0,4,4,0,0,0,.65-2.42,3.61,3.61,0,0,0-.66-2.25,2.2,2.2,0,0,0-3.48,0A3.92,3.92,0,0,0,66.36,109.5Z" transform="translate(-14.17 -12.58)" style="fill:#9c9d9e"/><path d="M76.75,105.18v1.06A3.08,3.08,0,0,1,79.32,105q2.68,0,2.7,3v5.59H80.58V108a2,2,0,0,0-.42-1.35,1.67,1.67,0,0,0-1.28-.44,2.09,2.09,0,0,0-1.23.38,2.54,2.54,0,0,0-.83,1v6H75.38v-8.45h1.37Z" transform="translate(-14.17 -12.58)" style="fill:#9c9d9e"/><path d="M90.09,111.4a1.06,1.06,0,0,0-.44-.91,4.26,4.26,0,0,0-1.54-.56,7.27,7.27,0,0,1-1.74-.56,2.48,2.48,0,0,1-1-.78,1.86,1.86,0,0,1-.31-1.08,2.19,2.19,0,0,1,.88-1.76,3.43,3.43,0,0,1,2.25-.72,3.53,3.53,0,0,1,2.33.74,2.36,2.36,0,0,1,.89,1.9H90a1.3,1.3,0,0,0-.5-1,1.89,1.89,0,0,0-1.27-.43,2,2,0,0,0-1.23.34,1.08,1.08,0,0,0-.45.9.88.88,0,0,0,.41.79,5.09,5.09,0,0,0,1.5.51,7.8,7.8,0,0,1,1.75.58,2.56,2.56,0,0,1,1,.81,2,2,0,0,1,.32,1.15,2.16,2.16,0,0,1-.91,1.82,3.8,3.8,0,0,1-2.35.68,4.26,4.26,0,0,1-1.8-.36,2.92,2.92,0,0,1-1.22-1,2.42,2.42,0,0,1-.44-1.39h1.45a1.5,1.5,0,0,0,.58,1.15,2.26,2.26,0,0,0,1.43.43,2.33,2.33,0,0,0,1.32-.33A1,1,0,0,0,90.09,111.4Z" transform="translate(-14.17 -12.58)" style="fill:#9c9d9e"/><path d="M97.88,113.79a3.69,3.69,0,0,1-2.8-1.13,4.19,4.19,0,0,1-1.08-3v-.27a5.07,5.07,0,0,1,.48-2.25,3.74,3.74,0,0,1,1.34-1.55A3.38,3.38,0,0,1,97.7,105a3.17,3.17,0,0,1,2.56,1.09,4.7,4.7,0,0,1,.91,3.11v.6H95.45a3,3,0,0,0,.73,2,2.3,2.3,0,0,0,1.78.77,2.52,2.52,0,0,0,1.3-.31,3.26,3.26,0,0,0,.93-.83l.88.69A3.55,3.55,0,0,1,97.88,113.79Zm-.18-7.58a1.93,1.93,0,0,0-1.47.64,3.09,3.09,0,0,0-.73,1.79h4.23v-.11a2.76,2.76,0,0,0-.59-1.71,1.82,1.82,0,0,0-1.44-.6Z" transform="translate(-14.17 -12.58)" style="fill:#9c9d9e"/><path d="M103.82,102.94a.86.86,0,0,1,.21-.59.81.81,0,0,1,.64-.24.82.82,0,0,1,.64.24.85.85,0,0,1,.22.59.86.86,0,1,1-1.71,0Zm1.56,10.7h-1.45v-8.45h1.45Z" transform="translate(-14.17 -12.58)" style="fill:#9c9d9e"/><path d="M110.23,113.64h-1.45v-12h1.45Z" transform="translate(-14.17 -12.58)" style="fill:#9c9d9e"/><path d="M121.81,112.61a2.08,2.08,0,0,0,1.35-.47,1.65,1.65,0,0,0,.64-1.17h1.37a2.63,2.63,0,0,1-.5,1.38,3.3,3.3,0,0,1-1.23,1,3.55,3.55,0,0,1-1.63.39,3.48,3.48,0,0,1-2.75-1.15,4.59,4.59,0,0,1-1-3.15v-.24a5.09,5.09,0,0,1,.45-2.2,3.45,3.45,0,0,1,1.3-1.49,3.69,3.69,0,0,1,2-.53,3.39,3.39,0,0,1,2.36.85,3,3,0,0,1,1,2.21H123.8a2,2,0,0,0-.62-1.35,1.93,1.93,0,0,0-1.38-.53,2,2,0,0,0-1.71.79,3.72,3.72,0,0,0-.61,2.29v.27a3.65,3.65,0,0,0,.6,2.25A2,2,0,0,0,121.81,112.61Z" transform="translate(-14.17 -12.58)" style="fill:#9c9d9e"/><path d="M131.26,113.79a3.69,3.69,0,0,1-2.8-1.13,4.19,4.19,0,0,1-1.08-3v-.27a5.07,5.07,0,0,1,.48-2.25,3.74,3.74,0,0,1,1.34-1.55,3.38,3.38,0,0,1,1.87-.56,3.17,3.17,0,0,1,2.56,1.09,4.7,4.7,0,0,1,.91,3.11v.6h-5.73a3,3,0,0,0,.73,2,2.3,2.3,0,0,0,1.78.77,2.52,2.52,0,0,0,1.3-.31,3.26,3.26,0,0,0,.93-.83l.88.69A3.55,3.55,0,0,1,131.26,113.79Zm-.18-7.58a1.93,1.93,0,0,0-1.47.64,3.09,3.09,0,0,0-.73,1.79h4.23v-.11a2.76,2.76,0,0,0-.59-1.71,1.82,1.82,0,0,0-1.44-.6Z" transform="translate(-14.17 -12.58)" style="fill:#9c9d9e"/><path d="M141.28,106.48a4.37,4.37,0,0,0-.71-.05,1.9,1.9,0,0,0-1.93,1.21v6h-1.45v-8.45h1.41v1a2.25,2.25,0,0,1,2-1.13,1.47,1.47,0,0,1,.64.11v1.34Z" transform="translate(-14.17 -12.58)" style="fill:#9c9d9e"/><path d="M145.53,103.14v2h1.58v1.12h-1.58v5.25a1.17,1.17,0,0,0,.21.76.89.89,0,0,0,.72.25,3.5,3.5,0,0,0,.69-.09v1.17a4.22,4.22,0,0,1-1.11.16,1.8,1.8,0,0,1-1.46-.59,2.52,2.52,0,0,1-.49-1.66V106.3h-1.54v-1.12h1.54v-2h1.45Z" transform="translate(-14.17 -12.58)" style="fill:#9c9d9e"/><path d="M149.76,102.94a.86.86,0,0,1,.21-.59.81.81,0,0,1,.64-.24.82.82,0,0,1,.64.24.85.85,0,0,1,.22.59.86.86,0,1,1-1.71,0Zm1.56,10.7h-1.45v-8.45h1.45Z" transform="translate(-14.17 -12.58)" style="fill:#9c9d9e"/><path d="M155.31,113.64V106.3H154v-1.12h1.34v-.87a2.88,2.88,0,0,1,.73-2.1,2.74,2.74,0,0,1,2.05-.74,3.82,3.82,0,0,1,1,.13l-.12,1.17a4.15,4.15,0,0,0-.78-.07,1.41,1.41,0,0,0-1.09.41,1.67,1.67,0,0,0-.38,1.18v.89h1.8v1.12h-1.8v7.34h-1.44Z" transform="translate(-14.17 -12.58)" style="fill:#9c9d9e"/><path d="M161.12,102.94a.86.86,0,0,1,.21-.59.81.81,0,0,1,.64-.24.82.82,0,0,1,.64.24.85.85,0,0,1,.22.59.86.86,0,1,1-1.71,0Zm1.56,10.7h-1.45v-8.45h1.45Z" transform="translate(-14.17 -12.58)" style="fill:#9c9d9e"/><path d="M169.34,112.61a2.08,2.08,0,0,0,1.35-.47,1.65,1.65,0,0,0,.64-1.17h1.37a2.63,2.63,0,0,1-.5,1.38,3.3,3.3,0,0,1-1.23,1,3.55,3.55,0,0,1-1.63.39,3.48,3.48,0,0,1-2.75-1.15,4.59,4.59,0,0,1-1-3.15v-.24A5.09,5.09,0,0,1,166,107a3.45,3.45,0,0,1,1.3-1.49,3.69,3.69,0,0,1,2-.53,3.39,3.39,0,0,1,2.36.85,3,3,0,0,1,1,2.21h-1.37a2,2,0,0,0-.62-1.35,1.93,1.93,0,0,0-1.38-.53,2,2,0,0,0-1.71.79,3.72,3.72,0,0,0-.61,2.29v.27a3.65,3.65,0,0,0,.6,2.25A2,2,0,0,0,169.34,112.61Z" transform="translate(-14.17 -12.58)" style="fill:#9c9d9e"/><path d="M180.51,113.64a3,3,0,0,1-.2-.89,3.22,3.22,0,0,1-2.41,1,3,3,0,0,1-2.05-.71,2.29,2.29,0,0,1-.8-1.79,2.39,2.39,0,0,1,1-2.05,4.73,4.73,0,0,1,2.82-.73h1.41v-.66a1.63,1.63,0,0,0-.45-1.21,1.82,1.82,0,0,0-1.34-.45,2.1,2.1,0,0,0-1.3.39,1.15,1.15,0,0,0-.52.95h-1.45a2,2,0,0,1,.45-1.22,3.06,3.06,0,0,1,1.22-.93,4.09,4.09,0,0,1,1.69-.34,3.34,3.34,0,0,1,2.29.73,2.64,2.64,0,0,1,.86,2v3.89a4.75,4.75,0,0,0,.3,1.85v.13h-1.52Zm-2.4-1.1a2.54,2.54,0,0,0,1.29-.35,2.13,2.13,0,0,0,.88-.91v-1.73h-1.13q-2.66,0-2.66,1.55a1.31,1.31,0,0,0,.45,1.06A1.74,1.74,0,0,0,178.11,112.54Z" transform="translate(-14.17 -12.58)" style="fill:#9c9d9e"/><path d="M186.91,103.14v2h1.58v1.12h-1.58v5.25a1.17,1.17,0,0,0,.21.76.89.89,0,0,0,.72.25,3.5,3.5,0,0,0,.69-.09v1.17a4.22,4.22,0,0,1-1.11.16,1.8,1.8,0,0,1-1.46-.59,2.52,2.52,0,0,1-.49-1.66V106.3h-1.54v-1.12h1.54v-2h1.45Z" transform="translate(-14.17 -12.58)" style="fill:#9c9d9e"/><path d="M191.14,102.94a.86.86,0,0,1,.21-.59.81.81,0,0,1,.64-.24.82.82,0,0,1,.64.24.85.85,0,0,1,.22.59.86.86,0,1,1-1.71,0Zm1.56,10.7h-1.45v-8.45h1.45Z" transform="translate(-14.17 -12.58)" style="fill:#9c9d9e"/><path d="M195.6,109.33a5,5,0,0,1,.49-2.23,3.64,3.64,0,0,1,1.36-1.53,3.7,3.7,0,0,1,2-.54,3.56,3.56,0,0,1,2.79,1.2,4.6,4.6,0,0,1,1.07,3.18v.1a5,5,0,0,1-.47,2.21,3.59,3.59,0,0,1-1.35,1.53,3.74,3.74,0,0,1-2,.55,3.56,3.56,0,0,1-2.79-1.2,4.58,4.58,0,0,1-1.07-3.16v-.1Zm1.45.17a3.62,3.62,0,0,0,.65,2.26,2.21,2.21,0,0,0,3.5,0,4,4,0,0,0,.65-2.42,3.61,3.61,0,0,0-.66-2.25,2.2,2.2,0,0,0-3.48,0A3.92,3.92,0,0,0,197.05,109.5Z" transform="translate(-14.17 -12.58)" style="fill:#9c9d9e"/><path d="M207.43,105.18v1.06A3.08,3.08,0,0,1,210,105q2.68,0,2.7,3v5.59h-1.45V108a1.94,1.94,0,0,0-.42-1.35,1.67,1.67,0,0,0-1.28-.44,2.09,2.09,0,0,0-1.23.38,2.55,2.55,0,0,0-.83,1v6H206v-8.45h1.37Z" transform="translate(-14.17 -12.58)" style="fill:#9c9d9e"/><path d="M226,113.64a3,3,0,0,1-.2-.89,3.22,3.22,0,0,1-2.41,1,3,3,0,0,1-2.05-.71,2.29,2.29,0,0,1-.8-1.79,2.39,2.39,0,0,1,1-2.05,4.73,4.73,0,0,1,2.82-.73h1.41v-.66a1.63,1.63,0,0,0-.45-1.21,1.82,1.82,0,0,0-1.34-.45,2.1,2.1,0,0,0-1.3.39,1.15,1.15,0,0,0-.52.95H220.7a2,2,0,0,1,.45-1.22,3.07,3.07,0,0,1,1.22-.93,4.09,4.09,0,0,1,1.69-.34,3.34,3.34,0,0,1,2.29.73,2.64,2.64,0,0,1,.86,2v3.89a4.75,4.75,0,0,0,.3,1.85v.13H226Zm-2.4-1.1a2.54,2.54,0,0,0,1.29-.35,2.13,2.13,0,0,0,.88-.91v-1.73h-1.13q-2.66,0-2.66,1.55a1.32,1.32,0,0,0,.45,1.06,1.74,1.74,0,0,0,1.16.38Z" transform="translate(-14.17 -12.58)" style="fill:#9c9d9e"/><path d="M235.66,112.8a3.07,3.07,0,0,1-2.48,1,2.63,2.63,0,0,1-2.06-.79,3.39,3.39,0,0,1-.71-2.32v-5.5h1.45v5.46q0,1.92,1.56,1.92a2.16,2.16,0,0,0,2.2-1.23v-6.15h1.45v8.45H235.7Z" transform="translate(-14.17 -12.58)" style="fill:#9c9d9e"/><path d="M239.87,109.34a5,5,0,0,1,.92-3.13,3.14,3.14,0,0,1,4.77-.17v-4.41H247v12h-1.33l-.07-.91a2.94,2.94,0,0,1-2.41,1.06,2.89,2.89,0,0,1-2.39-1.2,5,5,0,0,1-.93-3.14v-.11Zm1.45.16a3.75,3.75,0,0,0,.59,2.25,1.92,1.92,0,0,0,1.64.81,2.11,2.11,0,0,0,2-1.23v-3.88a2.13,2.13,0,0,0-2-1.2,1.93,1.93,0,0,0-1.66.82,4.13,4.13,0,0,0-.58,2.43Z" transform="translate(-14.17 -12.58)" style="fill:#9c9d9e"/><path d="M250.21,102.94a.86.86,0,0,1,.21-.59.81.81,0,0,1,.64-.24.82.82,0,0,1,.64.24.85.85,0,0,1,.22.59.86.86,0,1,1-1.71,0Zm1.56,10.7h-1.45v-8.45h1.45Z" transform="translate(-14.17 -12.58)" style="fill:#9c9d9e"/><path d="M257,103.14v2h1.58v1.12H257v5.25a1.17,1.17,0,0,0,.21.76.89.89,0,0,0,.72.25,3.5,3.5,0,0,0,.69-.09v1.17a4.21,4.21,0,0,1-1.11.16,1.8,1.8,0,0,1-1.46-.59,2.52,2.52,0,0,1-.49-1.66V106.3H254v-1.12h1.54v-2H257Z" transform="translate(-14.17 -12.58)" style="fill:#9c9d9e"/><path d="M265.85,110.58a2.67,2.67,0,0,1,.46-1.51,7,7,0,0,1,1.75-1.6,7.55,7.55,0,0,1-1-1.48,2.66,2.66,0,0,1,2.59-3.88,2.8,2.8,0,0,1,1.94.68,2.21,2.21,0,0,1,.77,1.72,2.43,2.43,0,0,1-.35,1.27A4.51,4.51,0,0,1,270.8,107l-.84.62,2.53,3a4.79,4.79,0,0,0,.53-2.26h1.3a5.45,5.45,0,0,1-1,3.3l1.63,1.95h-1.73l-.76-.9a4,4,0,0,1-1.36.79,4.8,4.8,0,0,1-1.58.27,3.91,3.91,0,0,1-2.67-.88A2.94,2.94,0,0,1,265.85,110.58Zm3.68,2a3,3,0,0,0,2.1-.87l-2.77-3.32-.26.19a2.6,2.6,0,0,0-1.3,2,1.92,1.92,0,0,0,.6,1.48,2.31,2.31,0,0,0,1.63.55Zm-1.3-7.79a3.28,3.28,0,0,0,.92,1.88l.92-.65a2.44,2.44,0,0,0,.73-.71,1.63,1.63,0,0,0,.2-.82,1.12,1.12,0,0,0-.39-.87,1.43,1.43,0,0,0-1-.35,1.27,1.27,0,0,0-1,.43,1.62,1.62,0,0,0-.39,1.12Z" transform="translate(-14.17 -12.58)" style="fill:#9c9d9e"/><path d="M285.49,113.79a3.69,3.69,0,0,1-2.8-1.13,4.19,4.19,0,0,1-1.08-3v-.27a5.07,5.07,0,0,1,.48-2.25,3.75,3.75,0,0,1,1.34-1.55,3.38,3.38,0,0,1,1.87-.56,3.17,3.17,0,0,1,2.56,1.09,4.7,4.7,0,0,1,.91,3.11v.6H283a3,3,0,0,0,.73,2,2.3,2.3,0,0,0,1.78.77,2.52,2.52,0,0,0,1.3-.31,3.25,3.25,0,0,0,.93-.83l.88.69A3.55,3.55,0,0,1,285.49,113.79Zm-.18-7.58a1.93,1.93,0,0,0-1.47.64,3.1,3.1,0,0,0-.73,1.79h4.23v-.11a2.75,2.75,0,0,0-.59-1.71,1.82,1.82,0,0,0-1.44-.6Z" transform="translate(-14.17 -12.58)" style="fill:#9c9d9e"/><path d="M294.25,108.27l1.88-3.09h1.69L295,109.36l2.85,4.27h-1.67l-2-3.16-2,3.16H290.5l2.85-4.27-2.77-4.18h1.67Z" transform="translate(-14.17 -12.58)" style="fill:#9c9d9e"/><path d="M307.44,109.5a5.06,5.06,0,0,1-.88,3.11,2.83,2.83,0,0,1-2.39,1.18,3.1,3.1,0,0,1-2.42-1v4.07H300.3v-11.7h1.32l.07.94a3,3,0,0,1,2.45-1.09,2.88,2.88,0,0,1,2.41,1.15,5.12,5.12,0,0,1,.89,3.2v.13Zm-1.45-.16a3.73,3.73,0,0,0-.61-2.26,2,2,0,0,0-1.67-.83,2.12,2.12,0,0,0-2,1.16v4a2.13,2.13,0,0,0,2,1.16,2,2,0,0,0,1.65-.82,4.08,4.08,0,0,0,.64-2.41Z" transform="translate(-14.17 -12.58)" style="fill:#9c9d9e"/><path d="M313.75,113.79a3.69,3.69,0,0,1-2.8-1.13,4.19,4.19,0,0,1-1.08-3v-.27a5.07,5.07,0,0,1,.48-2.25,3.75,3.75,0,0,1,1.34-1.55,3.38,3.38,0,0,1,1.87-.56,3.17,3.17,0,0,1,2.56,1.09,4.7,4.7,0,0,1,.91,3.11v.6H311.3a3,3,0,0,0,.73,2,2.3,2.3,0,0,0,1.78.77,2.52,2.52,0,0,0,1.3-.31,3.25,3.25,0,0,0,.93-.83l.88.69A3.55,3.55,0,0,1,313.75,113.79Zm-.18-7.58a1.93,1.93,0,0,0-1.47.64,3.1,3.1,0,0,0-.73,1.79h4.23v-.11a2.75,2.75,0,0,0-.59-1.71,1.82,1.82,0,0,0-1.44-.6Z" transform="translate(-14.17 -12.58)" style="fill:#9c9d9e"/><path d="M323.76,106.48a4.37,4.37,0,0,0-.71-.05,1.9,1.9,0,0,0-1.93,1.21v6h-1.45v-8.45h1.41v1a2.25,2.25,0,0,1,2-1.13,1.47,1.47,0,0,1,.64.11v1.34Z" transform="translate(-14.17 -12.58)" style="fill:#9c9d9e"/><path d="M328,103.14v2h1.58v1.12H328v5.25a1.17,1.17,0,0,0,.21.76.89.89,0,0,0,.72.25,3.5,3.5,0,0,0,.69-.09v1.17a4.21,4.21,0,0,1-1.11.16,1.8,1.8,0,0,1-1.46-.59,2.52,2.52,0,0,1-.49-1.66V106.3H325v-1.12h1.54v-2H328Z" transform="translate(-14.17 -12.58)" style="fill:#9c9d9e"/><path d="M332.24,102.94a.86.86,0,0,1,.21-.59.81.81,0,0,1,.64-.24.82.82,0,0,1,.64.24.85.85,0,0,1,.22.59.86.86,0,1,1-1.71,0Zm1.56,10.7h-1.45v-8.45h1.45Z" transform="translate(-14.17 -12.58)" style="fill:#9c9d9e"/><path d="M342,111.4a1.06,1.06,0,0,0-.44-.91,4.25,4.25,0,0,0-1.54-.56,7.28,7.28,0,0,1-1.74-.56,2.48,2.48,0,0,1-1-.78,1.86,1.86,0,0,1-.31-1.08,2.19,2.19,0,0,1,.88-1.76,3.43,3.43,0,0,1,2.25-.72,3.53,3.53,0,0,1,2.33.74,2.36,2.36,0,0,1,.89,1.9h-1.45a1.3,1.3,0,0,0-.5-1,1.89,1.89,0,0,0-1.27-.43,2,2,0,0,0-1.23.34,1.08,1.08,0,0,0-.45.9.88.88,0,0,0,.41.79,5.09,5.09,0,0,0,1.5.51,7.8,7.8,0,0,1,1.75.58,2.55,2.55,0,0,1,1,.81,2,2,0,0,1,.32,1.15,2.16,2.16,0,0,1-.91,1.82,3.8,3.8,0,0,1-2.35.68,4.26,4.26,0,0,1-1.8-.36,2.92,2.92,0,0,1-1.22-1,2.42,2.42,0,0,1-.44-1.39h1.45a1.5,1.5,0,0,0,.58,1.15,2.26,2.26,0,0,0,1.43.43,2.33,2.33,0,0,0,1.32-.33A1,1,0,0,0,342,111.4Z" transform="translate(-14.17 -12.58)" style="fill:#9c9d9e"/><path d="M349.8,113.79a3.69,3.69,0,0,1-2.8-1.13,4.19,4.19,0,0,1-1.08-3v-.27a5.07,5.07,0,0,1,.48-2.25,3.75,3.75,0,0,1,1.34-1.55,3.38,3.38,0,0,1,1.87-.56,3.17,3.17,0,0,1,2.56,1.09,4.7,4.7,0,0,1,.91,3.11v.6h-5.73a3,3,0,0,0,.73,2,2.3,2.3,0,0,0,1.78.77,2.52,2.52,0,0,0,1.3-.31,3.25,3.25,0,0,0,.93-.83l.88.69A3.55,3.55,0,0,1,349.8,113.79Zm-.18-7.58a1.93,1.93,0,0,0-1.47.64,3.1,3.1,0,0,0-.73,1.79h4.23v-.11a2.75,2.75,0,0,0-.59-1.71,1.82,1.82,0,0,0-1.44-.6Z" transform="translate(-14.17 -12.58)" style="fill:#9c9d9e"/><path d="M65.39,68.11a10.3,10.3,0,0,0,6.69-2.32A8.16,8.16,0,0,0,75.24,60H82a13,13,0,0,1-2.47,6.84A16.29,16.29,0,0,1,73.44,72a17.57,17.57,0,0,1-8.05,2q-8.54,0-13.58-5.7t-5-15.59v-1.2A25.17,25.17,0,0,1,49,40.6a17.07,17.07,0,0,1,6.43-7.38,18.28,18.28,0,0,1,9.91-2.63A16.77,16.77,0,0,1,77,34.8a15.06,15.06,0,0,1,5,10.94H75.24a9.86,9.86,0,0,0-3.07-6.67,9.56,9.56,0,0,0-6.82-2.61,10,10,0,0,0-8.44,3.92q-3,3.92-3,11.34v1.35q0,7.23,3,11.13A10.05,10.05,0,0,0,65.39,68.11Z" transform="translate(-14.17 -12.58)" style="fill:#1d60a9"/><path d="M85.77,51.88a24.7,24.7,0,0,1,2.42-11,18,18,0,0,1,6.72-7.57,18.3,18.3,0,0,1,9.84-2.67,17.64,17.64,0,0,1,13.82,5.91q5.27,5.91,5.28,15.73v.5a24.91,24.91,0,0,1-2.34,11,17.75,17.75,0,0,1-6.69,7.56,18.51,18.51,0,0,1-10,2.71A17.59,17.59,0,0,1,91,68q-5.28-5.91-5.28-15.65v-.5Zm7.23.85q0,7,3.23,11.17a10.94,10.94,0,0,0,17.29-.06q3.21-4.27,3.21-12,0-6.88-3.27-11.15a10.38,10.38,0,0,0-8.68-4.27,10.27,10.27,0,0,0-8.54,4.21Q93,44.89,93,52.73Z" transform="translate(-14.17 -12.58)" style="fill:#1d60a9"/><path d="M135.62,31.36l.23,5.26a15.24,15.24,0,0,1,12.52-6q13.26,0,13.37,15V73.18h-7.15V45.51q0-4.52-2.07-6.69t-6.32-2.16a10.32,10.32,0,0,0-6.11,1.85,12.59,12.59,0,0,0-4.1,4.87v29.8h-7.15V31.36h6.78Z" transform="translate(-14.17 -12.58)" style="fill:#1d60a9"/><path d="M185.34,68.11A10.3,10.3,0,0,0,192,65.8a8.16,8.16,0,0,0,3.2-5.8H202a13,13,0,0,1-2.47,6.84A16.29,16.29,0,0,1,193.4,72a17.57,17.57,0,0,1-8.06,2q-8.54,0-13.58-5.7t-5-15.59v-1.2A25.17,25.17,0,0,1,169,40.6a17.07,17.07,0,0,1,6.43-7.38,18.28,18.28,0,0,1,9.91-2.63A16.77,16.77,0,0,1,197,34.8a15.06,15.06,0,0,1,5,10.94h-6.8a9.86,9.86,0,0,0-3.07-6.67,9.56,9.56,0,0,0-6.82-2.61,10,10,0,0,0-8.44,3.92q-3,3.92-3,11.34v1.35q0,7.23,3,11.13A10,10,0,0,0,185.34,68.11Z" transform="translate(-14.17 -12.58)" style="fill:#1d60a9"/><path d="M225,74a18.27,18.27,0,0,1-13.84-5.58q-5.33-5.58-5.33-14.94V52.11A25.1,25.1,0,0,1,208.18,41a18.55,18.55,0,0,1,6.65-7.65,16.72,16.72,0,0,1,9.26-2.76q8.15,0,12.68,5.37t4.52,15.38v3H213a14.86,14.86,0,0,0,3.61,10,11.36,11.36,0,0,0,8.79,3.81,12.45,12.45,0,0,0,6.42-1.55,16.12,16.12,0,0,0,4.6-4.1l4.37,3.4Q235.49,74,225,74Zm-.89-37.49a9.54,9.54,0,0,0-7.27,3.15q-2.94,3.15-3.63,8.83h20.95V47.9q-.31-5.45-2.94-8.44a9,9,0,0,0-7.13-3Z" transform="translate(-14.17 -12.58)" style="fill:#1d60a9"/><path d="M268.19,37.78a21.5,21.5,0,0,0-3.52-.27q-7,0-9.55,6V73.18H248V31.36h7v4.83a11.13,11.13,0,0,1,10-5.6,7.31,7.31,0,0,1,3.17.54v6.65Z" transform="translate(-14.17 -12.58)" style="fill:#1d60a9"/><path d="M288.41,21.23V31.36h7.81v5.53h-7.81v26a5.8,5.8,0,0,0,1,3.77A4.39,4.39,0,0,0,293,67.88a17.28,17.28,0,0,0,3.4-.46v5.76a20.84,20.84,0,0,1-5.49.77q-4.79,0-7.23-2.9t-2.43-8.23V36.89h-7.61V31.36h7.61V21.23h7.16Z" transform="translate(-14.17 -12.58)" style="fill:#1d60a9"/><path d="M347.94,74q-10.09,0-15.34-7a16.18,16.18,0,0,1-6.88,5.14A25.35,25.35,0,0,1,315.9,74q-6.45,0-10.09-3.34t-3.63-9.18A11.2,11.2,0,0,1,306.57,52q4.39-3.36,12.93-3.36h8.62V45.45A9.42,9.42,0,0,0,326,38.94a7.82,7.82,0,0,0-6.15-2.38,10.61,10.61,0,0,0-6.76,2.13,6.45,6.45,0,0,0-2.71,5.26l-7.11-.73a10.79,10.79,0,0,1,4.68-9q4.68-3.5,11.9-3.5a18.21,18.21,0,0,1,7.85,1.6A12.14,12.14,0,0,1,333,37.1a17.19,17.19,0,0,1,5.8-4.73,16.36,16.36,0,0,1,7.42-1.68q8.12,0,12.6,5t4.48,14v4.44H335.18q.27,6.8,3.63,10.49a11.72,11.72,0,0,0,9.12,3.69,19.15,19.15,0,0,0,10.4-2.94l1.82-1.2,2.47,5.26A23.44,23.44,0,0,1,347.94,74Zm-30.65-5.8a13.76,13.76,0,0,0,5.84-1.43,15.85,15.85,0,0,0,5-3.52v-9.1H319.3a11.72,11.72,0,0,0-7.23,2.2,6.52,6.52,0,0,0-2.71,5.33,6,6,0,0,0,2,4.77,8.64,8.64,0,0,0,5.93,1.8Zm29-31.69a9.29,9.29,0,0,0-7.32,3.3,15.77,15.77,0,0,0-3.54,8.68h20.79v-1.2q0-5.1-2.59-7.94a9.43,9.43,0,0,0-7.34-2.79Z" transform="translate(-14.17 -12.58)" style="fill:url(#Dégradé_sans_nom)"/><path d="M25.68,92C18,82.2,14.18,69.16,14.18,53.24v-3a66.29,66.29,0,0,1,5.9-28.47,49.75,49.75,0,0,1,5.59-9.19l5,3.84a43.45,43.45,0,0,0-4.88,8,60.08,60.08,0,0,0-5.3,25.8v3c0,14.48,3.42,26.22,10.18,34.9Z" transform="translate(-14.17 -12.58)" style="fill:#1d60a9"/><path d="M385.23,92l-5-3.86c6.75-8.67,10.18-20.41,10.18-34.9v-3a60.08,60.08,0,0,0-5.3-25.8,43.45,43.45,0,0,0-4.88-8l5-3.84a49.74,49.74,0,0,1,5.59,9.19,66.3,66.3,0,0,1,5.9,28.47v3C396.73,69.13,392.86,82.16,385.23,92Z" transform="translate(-14.17 -12.58)" style="fill:#1d60a9"/></svg>